<svg xmlns="http://www.w3.org/2000/svg" xmlns:xlink="http://www.w3.org/1999/xlink" width="500" zoomAndPan="magnify" viewBox="0 0 375 374.999991" height="500" preserveAspectRatio="xMidYMid meet" version="1.0"><defs><g/><clipPath id="72ca2297a2"><path d="M 140 191 L 264.804688 191 L 264.804688 241 L 140 241 Z M 140 191 " clip-rule="nonzero"/></clipPath><clipPath id="2e91cc0ed2"><path d="M 123 129 L 173 129 L 173 253.984375 L 123 253.984375 Z M 123 129 " clip-rule="nonzero"/></clipPath><clipPath id="37bcfe393f"><path d="M 110.304688 112 L 235 112 L 235 162 L 110.304688 162 Z M 110.304688 112 " clip-rule="nonzero"/></clipPath></defs><rect x="-37.5" width="450" fill="#ffffff" y="-37.499999" height="449.999989" fill-opacity="1"/><rect x="-37.5" width="450" fill="#ffffff" y="-37.499999" height="449.999989" fill-opacity="1"/><path fill="#ff0000" d="M 201.132812 173.664062 L 201.132812 173.734375 C 200.109375 176.9375 198.199219 179.597656 195.539062 181.574219 L 187.691406 187.304688 L 179.773438 181.574219 C 177.113281 179.667969 175.066406 176.871094 174.109375 173.734375 L 174.109375 173.664062 C 173.289062 171.074219 174.316406 168.277344 176.566406 166.777344 L 176.636719 166.710938 C 177.929688 165.824219 179.433594 165.414062 181.003906 165.414062 C 183.117188 165.414062 185.164062 166.230469 186.667969 167.800781 L 187.691406 168.824219 L 188.714844 167.800781 C 190.214844 166.300781 192.261719 165.414062 194.378906 165.414062 C 195.949219 165.414062 197.515625 165.890625 198.8125 166.777344 L 198.882812 166.84375 C 200.996094 168.414062 201.882812 171.140625 201.132812 173.664062 Z M 201.132812 173.664062 " fill-opacity="1" fill-rule="nonzero"/><path fill="#111111" d="M 198.746094 166.84375 L 198.675781 166.777344 C 197.378906 165.890625 195.8125 165.414062 194.242188 165.414062 C 192.125 165.414062 190.078125 166.300781 188.578125 167.800781 L 187.554688 168.824219 L 186.53125 167.800781 C 185.027344 166.230469 183.050781 165.414062 180.867188 165.414062 C 179.296875 165.414062 177.796875 165.890625 176.5 166.710938 L 176.429688 166.777344 C 174.179688 168.277344 173.15625 171.074219 173.972656 173.664062 L 173.972656 173.734375 C 174.996094 176.871094 176.976562 179.667969 179.636719 181.574219 L 187.554688 187.304688 L 195.402344 181.574219 C 198.0625 179.597656 200.042969 176.871094 200.996094 173.734375 L 200.996094 173.664062 C 201.882812 171.140625 200.996094 168.414062 198.746094 166.84375 Z M 199.972656 173.324219 L 199.972656 173.390625 C 199.085938 176.324219 197.242188 178.847656 194.789062 180.621094 L 187.621094 185.871094 L 180.457031 180.6875 C 178 178.917969 176.15625 176.324219 175.203125 173.390625 L 175.132812 173.257812 C 174.519531 171.210938 175.269531 168.890625 177.113281 167.730469 L 177.179688 167.664062 C 178.273438 166.914062 179.570312 166.574219 180.867188 166.574219 C 182.707031 166.574219 184.414062 167.324219 185.644531 168.617188 L 187.484375 170.527344 L 189.328125 168.617188 C 190.625 167.324219 192.332031 166.574219 194.171875 166.574219 C 195.539062 166.574219 196.835938 166.980469 197.925781 167.730469 L 197.996094 167.800781 C 199.90625 169.027344 200.65625 171.277344 199.972656 173.324219 Z M 199.972656 173.324219 " fill-opacity="1" fill-rule="nonzero"/><g clip-path="url(#72ca2297a2)"><path fill="#111111" d="M 179.910156 240.222656 C 177.316406 240.222656 174.585938 240.222656 171.722656 240.222656 C 170.355469 240.222656 169.265625 240.222656 168.515625 240.222656 L 158.824219 240.222656 C 157.867188 240.222656 156.914062 239.816406 156.230469 239.132812 C 154.867188 237.769531 154.796875 235.585938 156.027344 234.15625 L 156.027344 234.085938 C 156.027344 234.085938 156.09375 234.019531 156.09375 234.019531 L 150.90625 234.019531 C 149.203125 234.019531 146.949219 234.019531 145.585938 231.972656 C 144.5625 230.472656 144.5625 228.496094 145.585938 226.992188 C 145.789062 226.652344 146.0625 226.3125 146.335938 226.105469 C 145.449219 226.039062 144.5625 225.902344 143.742188 225.492188 C 142.308594 224.8125 141.148438 223.515625 140.808594 222.082031 C 140.398438 220.652344 140.945312 218.945312 142.171875 217.789062 C 142.921875 217.039062 143.945312 216.492188 145.242188 216.152344 C 144.902344 215.878906 144.5625 215.535156 144.21875 215.128906 C 143.402344 213.96875 143.058594 212.535156 143.402344 211.105469 C 144.015625 208.582031 146.265625 207.21875 149.882812 207.21875 L 156.980469 207.21875 C 160.394531 207.21875 163.804688 207.21875 167.148438 207.21875 C 170.699219 207.21875 174.179688 207.21875 177.726562 207.21875 C 179.433594 207.21875 183.253906 207.421875 186.394531 207.625 C 186.871094 207.625 187.347656 207.695312 187.757812 207.695312 C 183.527344 205.375 175.339844 200.601562 174.246094 197.601562 C 173.699219 196.03125 173.90625 194.398438 174.929688 192.761719 C 175.40625 192.007812 176.019531 191.53125 176.769531 191.328125 C 178.546875 190.917969 180.59375 192.28125 182.230469 193.304688 C 182.640625 193.578125 183.117188 193.851562 183.460938 194.054688 C 189.054688 197.125 194.789062 199.988281 200.585938 202.511719 C 201.679688 202.988281 202.773438 203.601562 203.796875 204.148438 C 205.296875 204.964844 206.660156 205.71875 208.230469 206.261719 C 210.890625 207.21875 213.757812 207.695312 216.625 207.695312 L 219.148438 207.695312 L 219.148438 208.855469 L 216.625 208.855469 C 213.621094 208.855469 210.6875 208.375 207.820312 207.355469 C 206.183594 206.808594 204.683594 205.988281 203.179688 205.171875 C 202.15625 204.625 201.132812 204.082031 200.042969 203.601562 C 194.171875 201.011719 188.371094 198.148438 182.777344 195.078125 C 182.367188 194.875 181.957031 194.601562 181.480469 194.261719 C 180.113281 193.375 178.203125 192.144531 176.976562 192.417969 C 176.566406 192.488281 176.15625 192.828125 175.882812 193.304688 C 175.066406 194.667969 174.859375 195.964844 175.339844 197.191406 C 176.363281 200.058594 186.667969 205.851562 190.625 207.832031 L 192.808594 208.921875 L 190.417969 208.921875 C 189.941406 208.921875 188.371094 208.855469 186.394531 208.71875 C 183.324219 208.511719 179.5 208.308594 177.796875 208.308594 C 174.246094 208.308594 170.699219 208.308594 167.21875 208.308594 C 163.804688 208.308594 160.394531 208.308594 157.050781 208.308594 L 149.953125 208.308594 C 147.835938 208.308594 145.242188 208.855469 144.628906 211.308594 C 144.355469 212.332031 144.628906 213.492188 145.242188 214.308594 C 146.199219 215.605469 147.5625 215.945312 149.269531 215.945312 L 149.269531 217.039062 L 149.269531 215.945312 L 176.363281 215.808594 L 176.363281 216.96875 C 167.625 217.039062 158.890625 217.039062 150.15625 217.105469 L 150.019531 217.105469 C 149.816406 217.105469 149.542969 217.105469 149.339844 217.105469 C 149.132812 217.105469 148.929688 217.105469 148.722656 217.105469 C 148.382812 217.105469 148.109375 217.105469 147.769531 217.039062 C 147.085938 216.96875 146.335938 216.96875 145.722656 217.105469 C 144.699219 217.378906 143.808594 217.789062 143.195312 218.402344 C 142.308594 219.289062 141.898438 220.515625 142.171875 221.539062 C 142.445312 222.5625 143.402344 223.585938 144.492188 224.199219 C 145.652344 224.742188 147.085938 224.675781 148.519531 224.605469 C 148.996094 224.605469 149.472656 224.539062 149.882812 224.539062 L 150.363281 224.539062 C 151.863281 224.539062 153.296875 224.539062 154.796875 224.539062 L 175.339844 224.539062 C 175.816406 224.539062 176.292969 224.539062 176.769531 224.539062 L 176.769531 225.699219 L 151.113281 225.835938 C 149.339844 225.835938 147.632812 225.835938 146.675781 227.335938 C 145.925781 228.425781 145.925781 229.925781 146.675781 231.015625 C 147.632812 232.382812 149.132812 232.519531 151.042969 232.519531 L 178.203125 232.519531 L 178.203125 233.675781 L 158.753906 233.675781 C 158.074219 233.675781 157.390625 233.949219 156.914062 234.496094 L 156.84375 234.5625 C 156.027344 235.519531 156.09375 237.019531 156.980469 237.90625 C 157.457031 238.382812 158.074219 238.65625 158.753906 238.65625 L 168.515625 238.65625 C 169.265625 238.65625 170.355469 238.65625 171.722656 238.65625 C 181.207031 238.65625 210.003906 238.722656 211.710938 238.109375 C 212.050781 237.972656 212.804688 237.5625 213.757812 237.085938 C 217.308594 235.175781 220.925781 233.335938 222.628906 233.335938 L 264.804688 233.335938 L 264.804688 234.496094 L 222.628906 234.496094 C 221.058594 234.496094 216.625 236.882812 214.304688 238.109375 C 213.28125 238.65625 212.53125 239.066406 212.1875 239.199219 C 211.027344 240.019531 201.269531 240.222656 179.910156 240.222656 Z M 179.910156 240.222656 " fill-opacity="1" fill-rule="nonzero"/></g><g clip-path="url(#2e91cc0ed2)"><path fill="#111111" d="M 130.230469 253.660156 L 129.070312 253.660156 L 129.070312 211.511719 C 129.070312 209.945312 126.683594 205.511719 125.453125 203.195312 C 124.90625 202.171875 124.496094 201.421875 124.363281 201.078125 C 123.882812 199.851562 123.679688 187.714844 123.679688 160.640625 C 123.679688 159.277344 123.679688 158.183594 123.679688 157.433594 L 123.679688 147.683594 C 123.679688 146.726562 124.089844 145.773438 124.769531 145.089844 C 126.136719 143.726562 128.320312 143.660156 129.753906 144.886719 L 129.890625 144.953125 C 129.890625 144.953125 129.957031 145.023438 129.957031 145.023438 L 129.957031 139.839844 C 129.957031 138.136719 129.957031 135.886719 132.003906 134.519531 C 133.503906 133.496094 135.484375 133.496094 136.984375 134.519531 C 137.328125 134.726562 137.667969 135 137.875 135.269531 C 137.941406 134.382812 138.078125 133.496094 138.488281 132.679688 C 139.171875 131.246094 140.464844 130.089844 141.898438 129.746094 C 143.332031 129.339844 145.039062 129.882812 146.199219 131.109375 C 146.949219 131.859375 147.496094 132.882812 147.835938 134.179688 C 148.109375 133.839844 148.449219 133.496094 148.859375 133.15625 C 150.019531 132.339844 151.453125 131.996094 152.886719 132.339844 C 155.410156 132.953125 156.777344 135.203125 156.777344 138.816406 L 156.777344 145.910156 C 156.777344 149.320312 156.777344 152.730469 156.777344 156.070312 L 156.777344 157.027344 C 156.777344 160.230469 156.777344 163.4375 156.777344 166.640625 C 156.777344 168.347656 156.570312 172.164062 156.367188 175.300781 C 156.367188 175.777344 156.296875 176.257812 156.296875 176.664062 C 158.617188 172.4375 163.394531 164.253906 166.398438 163.164062 C 167.96875 162.617188 169.605469 162.820312 171.242188 163.84375 C 171.996094 164.324219 172.472656 164.9375 172.675781 165.6875 C 173.085938 167.460938 171.722656 169.503906 170.699219 171.140625 C 170.425781 171.621094 170.152344 172.027344 169.945312 172.371094 C 166.875 177.960938 164.011719 183.691406 161.484375 189.488281 C 161.007812 190.578125 160.394531 191.667969 159.847656 192.691406 C 159.027344 194.191406 158.277344 195.554688 157.730469 197.125 C 156.777344 199.785156 156.296875 202.648438 156.296875 205.511719 L 156.296875 208.035156 L 155.136719 208.035156 L 155.136719 205.511719 C 155.136719 202.511719 155.617188 199.578125 156.640625 196.714844 C 157.1875 195.078125 158.003906 193.578125 158.824219 192.078125 C 159.371094 191.054688 159.914062 190.03125 160.394531 188.941406 C 162.988281 183.074219 165.851562 177.28125 168.921875 171.6875 C 169.128906 171.277344 169.402344 170.867188 169.742188 170.390625 C 170.628906 169.027344 171.859375 167.117188 171.585938 165.890625 C 171.515625 165.480469 171.175781 165.074219 170.699219 164.800781 C 169.332031 163.980469 168.035156 163.777344 166.808594 164.253906 C 163.875 165.34375 158.074219 175.644531 156.027344 179.597656 L 154.933594 181.78125 L 154.933594 179.394531 C 154.933594 178.917969 155.003906 177.347656 155.136719 175.300781 C 155.34375 172.234375 155.546875 168.414062 155.546875 166.710938 C 155.546875 163.503906 155.546875 160.296875 155.546875 157.09375 L 155.546875 156.140625 C 155.546875 152.730469 155.546875 149.320312 155.546875 145.976562 L 155.546875 138.886719 C 155.546875 136.769531 155.003906 134.179688 152.546875 133.566406 C 151.523438 133.292969 150.363281 133.566406 149.542969 134.179688 C 148.246094 135.132812 147.90625 136.5 147.90625 138.203125 L 146.746094 138.203125 L 147.90625 138.203125 L 148.042969 165.277344 L 146.882812 165.277344 C 146.8125 156.546875 146.8125 147.820312 146.746094 139.089844 L 146.746094 138.953125 C 146.746094 138.75 146.746094 138.476562 146.746094 138.273438 C 146.746094 138.066406 146.746094 137.863281 146.746094 137.65625 C 146.746094 137.316406 146.746094 136.976562 146.8125 136.636719 C 146.882812 135.953125 146.882812 135.203125 146.746094 134.589844 C 146.472656 133.566406 146.0625 132.679688 145.449219 132.066406 C 144.5625 131.179688 143.332031 130.769531 142.308594 131.042969 C 141.285156 131.316406 140.195312 132.269531 139.648438 133.363281 C 139.101562 134.519531 139.171875 135.953125 139.238281 137.386719 C 139.238281 137.863281 139.304688 138.339844 139.304688 138.75 C 139.304688 140.386719 139.304688 142.023438 139.304688 143.660156 L 139.304688 164.1875 C 139.304688 164.664062 139.304688 165.140625 139.304688 165.617188 L 138.144531 165.617188 L 138.011719 139.976562 C 138.011719 138.203125 138.011719 136.5 136.507812 135.542969 C 135.417969 134.792969 133.914062 134.792969 132.824219 135.542969 C 131.457031 136.5 131.320312 138 131.320312 139.910156 L 131.320312 167.050781 L 130.160156 167.050781 L 130.160156 147.613281 C 130.160156 146.933594 129.890625 146.25 129.34375 145.773438 L 129.273438 145.703125 C 128.320312 144.886719 126.816406 144.953125 125.929688 145.839844 C 125.453125 146.320312 125.179688 146.933594 125.179688 147.613281 L 125.179688 157.367188 C 125.179688 158.117188 125.179688 159.207031 125.179688 160.570312 C 125.179688 170.050781 125.113281 198.828125 125.726562 200.535156 C 125.863281 200.875 126.273438 201.625 126.75 202.578125 C 128.660156 206.125 130.503906 209.742188 130.503906 211.511719 L 130.503906 253.660156 Z M 130.230469 253.660156 " fill-opacity="1" fill-rule="nonzero"/></g><g clip-path="url(#37bcfe393f)"><path fill="#111111" d="M 197.585938 161.390625 C 196.015625 161.390625 194.242188 160.230469 192.808594 159.34375 C 192.398438 159.070312 191.921875 158.796875 191.578125 158.59375 C 185.984375 155.523438 180.25 152.730469 174.449219 150.136719 C 173.359375 149.660156 172.265625 149.046875 171.242188 148.5 C 169.742188 147.683594 168.378906 146.933594 166.808594 146.386719 C 164.148438 145.433594 161.28125 144.953125 158.414062 144.953125 L 156.296875 144.953125 L 156.296875 143.796875 L 158.414062 143.796875 C 161.417969 143.796875 164.351562 144.273438 167.21875 145.296875 C 168.855469 145.839844 170.355469 146.660156 171.859375 147.476562 C 172.882812 148.023438 173.90625 148.570312 174.996094 149.046875 C 180.867188 151.636719 186.667969 154.503906 192.261719 157.570312 C 192.671875 157.777344 193.082031 158.046875 193.558594 158.390625 C 194.921875 159.277344 196.835938 160.503906 198.0625 160.230469 C 198.472656 160.164062 198.882812 159.820312 199.15625 159.34375 C 199.972656 157.980469 200.179688 156.683594 199.699219 155.457031 C 198.675781 152.59375 188.371094 146.796875 184.414062 144.820312 L 182.230469 143.726562 L 184.621094 143.726562 C 185.097656 143.726562 186.667969 143.796875 188.644531 143.933594 C 191.714844 144.136719 195.539062 144.339844 197.242188 144.339844 C 200.792969 144.339844 204.339844 144.339844 207.820312 144.339844 C 211.234375 144.339844 214.644531 144.339844 217.988281 144.339844 L 225.085938 144.339844 C 227.203125 144.339844 229.796875 143.796875 230.410156 141.339844 C 230.683594 140.316406 230.410156 139.15625 229.796875 138.339844 C 228.839844 137.042969 227.476562 136.703125 225.769531 136.703125 L 225.769531 135.679688 L 225.769531 136.703125 L 198.675781 136.839844 L 198.675781 135.679688 C 207.410156 135.613281 216.148438 135.613281 224.882812 135.542969 L 225.085938 135.542969 C 225.292969 135.542969 225.5625 135.542969 225.769531 135.542969 C 225.972656 135.542969 226.179688 135.542969 226.382812 135.542969 C 226.722656 135.542969 226.996094 135.542969 227.339844 135.613281 C 228.019531 135.679688 228.773438 135.679688 229.386719 135.542969 C 230.410156 135.269531 231.296875 134.863281 231.910156 134.25 C 232.796875 133.363281 233.207031 132.132812 232.933594 131.109375 C 232.660156 130.089844 231.707031 128.996094 230.613281 128.453125 C 229.453125 127.90625 228.019531 127.972656 226.589844 128.042969 C 226.109375 128.042969 225.632812 128.109375 225.222656 128.109375 L 224.746094 128.109375 C 223.246094 128.109375 221.8125 128.109375 220.308594 128.109375 L 199.769531 128.109375 C 199.292969 128.109375 198.8125 128.109375 198.335938 128.109375 L 198.335938 126.953125 L 223.996094 126.816406 C 225.769531 126.816406 227.476562 126.816406 228.429688 125.316406 C 229.179688 124.222656 229.179688 122.722656 228.429688 121.632812 C 227.476562 120.269531 225.972656 120.132812 224.0625 120.132812 L 196.902344 120.132812 L 196.902344 118.972656 L 216.214844 118.972656 C 216.898438 118.972656 217.578125 118.699219 218.058594 118.152344 L 218.125 118.085938 C 218.945312 117.132812 218.875 115.628906 217.988281 114.746094 C 217.511719 114.265625 216.898438 113.992188 216.214844 113.992188 L 206.457031 113.992188 C 205.707031 113.992188 204.613281 113.992188 203.25 113.992188 C 193.761719 113.992188 164.964844 113.925781 163.257812 114.539062 C 162.917969 114.675781 162.167969 115.085938 161.210938 115.5625 C 157.664062 117.472656 154.046875 119.3125 152.339844 119.3125 L 110.304688 119.3125 L 110.304688 118.152344 L 152.476562 118.152344 C 154.046875 118.152344 158.484375 115.765625 160.800781 114.539062 C 161.828125 113.992188 162.578125 113.585938 162.917969 113.449219 C 164.148438 112.972656 176.292969 112.765625 203.386719 112.765625 C 204.75 112.765625 205.84375 112.765625 206.59375 112.765625 L 216.351562 112.765625 C 217.308594 112.765625 218.261719 113.175781 218.945312 113.859375 C 220.308594 115.222656 220.378906 117.402344 219.148438 118.835938 L 219.082031 118.972656 C 219.082031 118.972656 219.011719 119.039062 219.011719 119.039062 L 224.199219 119.039062 C 225.90625 119.039062 228.15625 119.039062 229.523438 121.085938 C 230.546875 122.585938 230.546875 124.5625 229.523438 126.066406 C 229.316406 126.40625 229.042969 126.746094 228.773438 126.953125 C 229.660156 127.019531 230.546875 127.15625 231.363281 127.566406 C 232.796875 128.246094 233.957031 129.542969 234.300781 130.976562 C 234.707031 132.40625 234.164062 134.113281 232.933594 135.269531 C 232.183594 136.019531 231.160156 136.566406 229.863281 136.90625 C 230.203125 137.179688 230.546875 137.523438 230.886719 137.929688 C 231.707031 139.089844 232.046875 140.523438 231.707031 141.953125 C 231.09375 144.476562 228.839844 145.839844 225.222656 145.839844 L 218.125 145.433594 C 214.714844 145.433594 211.300781 145.433594 207.957031 145.433594 C 204.410156 145.433594 200.929688 145.433594 197.378906 145.433594 C 195.675781 145.433594 191.851562 145.226562 188.714844 145.023438 C 188.234375 145.023438 187.757812 144.953125 187.347656 144.953125 C 191.578125 147.273438 199.769531 152.046875 200.859375 155.046875 C 201.40625 156.617188 201.203125 158.253906 200.179688 159.890625 C 199.699219 160.640625 199.085938 161.117188 198.335938 161.320312 C 198.0625 161.320312 197.859375 161.390625 197.585938 161.390625 Z M 197.585938 161.390625 " fill-opacity="1" fill-rule="nonzero"/></g><path fill="#111111" d="M 232.253906 223.105469 C 231.09375 223.105469 229.863281 222.5625 228.976562 221.605469 C 228.226562 220.855469 227.679688 219.832031 227.339844 218.539062 C 227.066406 218.878906 226.722656 219.21875 226.316406 219.5625 C 225.15625 220.378906 223.722656 220.71875 222.289062 220.378906 C 219.765625 219.765625 218.398438 217.515625 218.398438 213.898438 L 218.398438 206.808594 C 218.398438 203.398438 218.398438 199.988281 218.398438 196.648438 C 218.398438 193.101562 218.398438 189.621094 218.398438 186.078125 C 218.398438 184.371094 218.605469 180.484375 218.808594 177.414062 C 218.808594 176.9375 218.875 176.460938 218.875 176.050781 C 216.554688 180.28125 211.78125 188.464844 208.777344 189.554688 C 207.207031 190.101562 205.570312 189.894531 203.929688 188.871094 C 203.179688 188.394531 202.703125 187.78125 202.5 187.03125 C 202.089844 185.257812 203.453125 183.210938 204.476562 181.574219 C 204.75 181.167969 205.023438 180.6875 205.226562 180.347656 C 208.300781 174.757812 211.097656 169.027344 213.691406 163.230469 C 214.167969 162.140625 214.78125 161.050781 215.328125 160.027344 C 216.148438 158.527344 216.898438 157.160156 217.445312 155.59375 C 218.398438 152.933594 218.875 150.070312 218.875 147.207031 L 218.875 144.683594 L 220.035156 144.683594 L 220.035156 147.207031 C 220.035156 150.207031 219.558594 153.136719 218.535156 156.003906 C 217.988281 157.640625 217.171875 159.140625 216.351562 160.640625 C 215.804688 161.664062 215.261719 162.6875 214.78125 163.777344 C 212.1875 169.640625 209.324219 175.4375 206.25 181.03125 C 206.046875 181.4375 205.773438 181.847656 205.433594 182.324219 C 204.546875 183.691406 203.316406 185.597656 203.589844 186.828125 C 203.660156 187.234375 204 187.644531 204.476562 187.917969 C 205.84375 188.734375 207.140625 188.941406 208.367188 188.464844 C 211.234375 187.441406 217.035156 177.144531 219.011719 173.1875 L 220.105469 171.003906 L 220.105469 173.390625 C 220.105469 173.871094 220.035156 175.4375 219.898438 177.414062 C 219.695312 180.484375 219.492188 184.371094 219.492188 186.007812 C 219.492188 189.554688 219.492188 193.101562 219.492188 196.578125 C 219.492188 199.988281 219.492188 203.398438 219.492188 206.738281 L 219.492188 213.832031 C 219.492188 215.945312 220.035156 218.539062 222.492188 219.152344 C 223.515625 219.425781 224.675781 219.152344 225.496094 218.539062 C 226.792969 217.582031 227.132812 216.21875 227.132812 214.515625 L 228.15625 214.515625 L 227.132812 214.515625 L 226.996094 187.441406 L 228.15625 187.441406 C 228.226562 196.167969 228.226562 204.898438 228.292969 213.628906 L 228.292969 213.832031 C 228.292969 214.035156 228.292969 214.308594 228.292969 214.515625 C 228.292969 214.71875 228.292969 214.921875 228.292969 215.128906 C 228.292969 215.46875 228.292969 215.808594 228.226562 216.152344 C 228.15625 216.832031 228.15625 217.582031 228.292969 218.195312 C 228.566406 219.21875 228.976562 220.105469 229.589844 220.71875 C 230.476562 221.605469 231.707031 222.015625 232.730469 221.742188 C 233.753906 221.46875 234.84375 220.515625 235.390625 219.425781 C 235.9375 218.265625 235.867188 216.832031 235.800781 215.402344 C 235.800781 214.921875 235.730469 214.445312 235.730469 214.035156 L 235.730469 213.558594 C 235.730469 212.058594 235.730469 210.628906 235.730469 209.125 L 235.730469 188.601562 C 235.730469 188.121094 235.730469 187.644531 235.730469 187.167969 L 236.890625 187.167969 L 237.027344 212.808594 C 237.027344 214.582031 237.027344 216.289062 238.53125 217.242188 C 239.621094 217.992188 241.125 217.992188 242.214844 217.242188 C 243.582031 216.289062 243.714844 214.785156 243.714844 212.878906 L 243.714844 185.734375 L 244.875 185.734375 L 244.875 205.035156 C 244.875 205.71875 245.148438 206.398438 245.695312 206.875 L 245.765625 206.945312 C 246.71875 207.761719 248.222656 207.695312 249.109375 206.808594 C 249.585938 206.332031 249.859375 205.71875 249.859375 205.035156 L 249.859375 195.28125 C 249.859375 194.53125 249.859375 193.441406 249.859375 192.078125 C 249.859375 182.597656 249.925781 153.820312 249.3125 152.117188 C 249.175781 151.773438 248.765625 151.023438 248.289062 150.070312 C 246.378906 146.523438 244.535156 142.910156 244.535156 141.203125 L 244.535156 99.058594 L 245.695312 99.058594 L 245.695312 141.203125 C 245.695312 142.773438 248.085938 147.207031 249.3125 149.523438 C 249.859375 150.546875 250.269531 151.296875 250.40625 151.636719 C 250.882812 152.867188 251.085938 165.003906 251.085938 192.078125 C 251.085938 193.441406 251.085938 194.53125 251.085938 195.28125 L 251.085938 205.035156 C 251.085938 205.988281 250.675781 206.945312 249.996094 207.625 C 248.628906 208.992188 246.445312 209.058594 245.011719 207.832031 L 244.875 207.761719 C 244.875 207.761719 244.808594 207.695312 244.808594 207.695312 L 244.808594 212.878906 C 244.808594 214.582031 244.808594 216.832031 242.761719 218.195312 C 241.261719 219.21875 239.28125 219.21875 237.78125 218.195312 C 237.4375 217.992188 237.097656 217.71875 236.890625 217.445312 C 236.824219 218.332031 236.6875 219.21875 236.277344 220.039062 C 235.597656 221.46875 234.300781 222.628906 232.867188 222.96875 C 232.933594 223.039062 232.59375 223.105469 232.253906 223.105469 Z M 232.253906 223.105469 " fill-opacity="1" fill-rule="nonzero"/><g fill="#111111" fill-opacity="1"><g transform="translate(65.29478, 247.630927)"><g><path d="M 16.671875 3.484375 C 18.203125 4 19.71875 3.671875 20.8125 2.484375 C 22.46875 0.671875 22.234375 -1.921875 19.53125 -4.40625 L 12.859375 -10.515625 L 1.75 1.609375 L 8.734375 8 C 11.703125 10.71875 14.203125 10.6875 16.0625 8.671875 C 17.53125 7.0625 17.6875 5.125 16.671875 3.484375 Z M 19.5 1.40625 C 18.375 2.640625 16.625 2.65625 15.390625 1.53125 L 9.265625 -4.078125 L 13.125 -8.296875 L 18.515625 -3.34375 C 20.609375 -1.4375 20.578125 0.234375 19.5 1.40625 Z M 9.546875 6.75 L 4 1.671875 L 8.328125 -3.0625 L 14.0625 2.1875 C 16.1875 4.140625 16.25 5.90625 14.921875 7.359375 C 13.59375 8.828125 11.875 8.890625 9.546875 6.75 Z M 9.546875 6.75 "/></g></g></g><g fill="#111111" fill-opacity="1"><g transform="translate(81.290377, 261.957301)"><g><path d="M 4.21875 1.21875 L 12.96875 -10.90625 L 11.546875 -11.9375 L 1.921875 1.390625 L 12.25 8.859375 L 13.125 7.65625 Z M 4.21875 1.21875 "/></g></g></g><g fill="#111111" fill-opacity="1"><g transform="translate(95.904974, 272.528326)"><g><path d="M 8.90625 5.171875 C 13.390625 7.640625 18.484375 6.9375 21.078125 2.25 C 23.65625 -2.421875 21.5625 -7.125 17.078125 -9.59375 C 12.609375 -12.0625 7.578125 -11.3125 5 -6.640625 C 2.40625 -1.953125 4.4375 2.703125 8.90625 5.171875 Z M 9.640625 3.84375 C 6 1.828125 4.3125 -1.84375 6.5 -5.8125 C 8.65625 -9.734375 12.6875 -10.265625 16.328125 -8.25 C 20 -6.21875 21.75 -2.5 19.59375 1.421875 C 17.40625 5.390625 13.3125 5.875 9.640625 3.84375 Z M 9.640625 3.84375 "/></g></g></g><g fill="#111111" fill-opacity="1"><g transform="translate(116.406954, 283.655122)"><g><path d="M 9.53125 3.90625 C 14.3125 5.75 19.25 4.34375 21.1875 -0.65625 C 23.09375 -5.625 20.390625 -10 15.609375 -11.84375 C 10.859375 -13.671875 5.953125 -12.234375 4.046875 -7.265625 C 2.109375 -2.265625 4.78125 2.078125 9.53125 3.90625 Z M 10.078125 2.5 C 6.203125 1 4.015625 -2.421875 5.65625 -6.65625 C 7.265625 -10.828125 11.171875 -11.90625 15.046875 -10.40625 C 18.96875 -8.890625 21.21875 -5.4375 19.609375 -1.265625 C 17.96875 2.96875 14 4.015625 10.078125 2.5 Z M 10.078125 2.5 "/></g></g></g><g fill="#111111" fill-opacity="1"><g transform="translate(138.218704, 291.831217)"><g><path d="M 2.3125 0.5625 L 9.734375 2.34375 C 14.859375 3.5625 18.265625 0.828125 19.375 -3.8125 C 20.484375 -8.453125 18.703125 -12.421875 13.578125 -13.640625 L 6.15625 -15.421875 Z M 4.359375 -0.46875 L 7.515625 -13.578125 L 13.203125 -12.21875 C 17.265625 -11.234375 18.578125 -8.109375 17.640625 -4.21875 C 16.703125 -0.3125 14.109375 1.875 10.046875 0.890625 Z M 4.359375 -0.46875 "/></g></g></g><g fill="#111111" fill-opacity="1"><g transform="translate(159.218333, 296.474112)"><g/></g></g><g fill="#111111" fill-opacity="1"><g transform="translate(167.275809, 297.872783)"><g><path d="M 2.375 0.140625 L 10 0.609375 C 15.25 0.9375 18.140625 -2.34375 18.421875 -7.109375 C 18.71875 -11.859375 16.265625 -15.46875 11.015625 -15.796875 L 3.390625 -16.265625 Z M 4.203125 -1.234375 L 5.03125 -14.671875 L 10.890625 -14.3125 C 15.046875 -14.046875 16.890625 -11.21875 16.640625 -7.21875 C 16.40625 -3.1875 14.21875 -0.609375 10.0625 -0.875 Z M 4.203125 -1.234375 "/></g></g></g><g fill="#111111" fill-opacity="1"><g transform="translate(189.05333, 299.091285)"><g><path d="M 10.28125 -0.515625 C 15.40625 -0.875 19.28125 -4.25 18.90625 -9.59375 C 18.53125 -14.90625 14.21875 -17.703125 9.09375 -17.34375 C 4.015625 -16.984375 0.203125 -13.609375 0.578125 -8.296875 C 0.953125 -2.953125 5.203125 -0.15625 10.28125 -0.515625 Z M 10.171875 -2.03125 C 6.03125 -1.734375 2.609375 -3.890625 2.296875 -8.421875 C 1.984375 -12.875 5.0625 -15.53125 9.203125 -15.828125 C 13.40625 -16.125 16.890625 -13.9375 17.203125 -9.484375 C 17.515625 -4.953125 14.375 -2.328125 10.171875 -2.03125 Z M 10.171875 -2.03125 "/></g></g></g><g fill="#111111" fill-opacity="1"><g transform="translate(212.28212, 297.23357)"><g><path d="M 11.84375 -19.25 L 14.75 -5.234375 L 0.9375 -16.984375 L -1.015625 -16.578125 L 2.328125 -0.484375 L 4.03125 -0.828125 L 1.140625 -14.796875 L 14.921875 -3.09375 L 16.890625 -3.5 L 13.546875 -19.59375 Z M 11.84375 -19.25 "/></g></g></g><g fill="#111111" fill-opacity="1"><g transform="translate(233.907417, 292.487951)"><g><path d="M 13.015625 -4.375 L 14.734375 -4.953125 L 3.359375 -18.46875 L 1.359375 -17.796875 L 0.453125 -0.15625 L 2.203125 -0.734375 L 2.375 -5.203125 L 10.1875 -7.8125 Z M 2.421875 -6.6875 L 2.796875 -16.515625 L 3 -16.578125 L 9.21875 -8.96875 Z M 2.421875 -6.6875 "/></g></g></g><g fill="#111111" fill-opacity="1"><g transform="translate(251.380227, 286.488328)"><g><path d="M 7.46875 -21.546875 L -6.546875 -15.078125 L -5.921875 -13.734375 L 0.28125 -16.609375 L 6.546875 -3.03125 L 8.140625 -3.765625 L 1.875 -17.34375 L 8.09375 -20.203125 Z M 7.46875 -21.546875 "/></g></g></g><g fill="#111111" fill-opacity="1"><g transform="translate(268.005864, 278.49856)"><g><path d="M 2.0625 -1.171875 L 3.59375 -2.015625 L -4.46875 -16.34375 L -6 -15.5 Z M 2.0625 -1.171875 "/></g></g></g><g fill="#111111" fill-opacity="1"><g transform="translate(275.848593, 274.339328)"><g><path d="M 8.59375 -5.671875 C 12.796875 -8.59375 14.40625 -13.484375 11.359375 -17.890625 C 8.3125 -22.265625 3.1875 -22.46875 -1.015625 -19.546875 C -5.203125 -16.65625 -6.78125 -11.796875 -3.734375 -7.421875 C -0.6875 -3.015625 4.40625 -2.78125 8.59375 -5.671875 Z M 7.734375 -6.921875 C 4.3125 -4.5625 0.25 -4.6875 -2.328125 -8.40625 C -4.875 -12.078125 -3.578125 -15.921875 -0.15625 -18.28125 C 3.296875 -20.6875 7.421875 -20.59375 9.96875 -16.921875 C 12.546875 -13.203125 11.1875 -9.328125 7.734375 -6.921875 Z M 7.734375 -6.921875 "/></g></g></g><g fill="#111111" fill-opacity="1"><g transform="translate(294.877863, 260.88805)"><g><path d="M 0.375 -22.59375 L 10.015625 -12.015625 L -7.84375 -15.09375 L -9.328125 -13.734375 L 1.75 -1.59375 L 3.03125 -2.765625 L -6.59375 -13.296875 L 11.25 -10.265625 L 12.734375 -11.625 L 1.65625 -23.765625 Z M 0.375 -22.59375 "/></g></g></g></svg>